<?xml version="1.0" standalone="no"?>
<!DOCTYPE svg PUBLIC "-//W3C//DTD SVG 20010904//EN"
 "http://www.w3.org/TR/2001/REC-SVG-20010904/DTD/svg10.dtd">
<svg version="1.0" xmlns="http://www.w3.org/2000/svg"
 width="512.000000pt" height="512.000000pt" viewBox="0 0 512.000000 512.000000"
 preserveAspectRatio="xMidYMid meet">
<metadata>
Created by potrace 1.14, written by Peter Selinger 2001-2017
</metadata>
<g transform="translate(0.000000,512.000000) scale(0.100000,-0.100000)"
fill="#000000" stroke="none">
<path d="M1264 4786 c-163 -40 -327 -170 -397 -316 -72 -147 -67 -8 -67 -1919
l1 -1726 27 -80 c35 -103 69 -161 142 -238 65 -69 137 -117 238 -156 l67 -26
1462 -3 1463 -3 41 21 c29 15 46 33 60 63 18 41 19 92 19 1728 l0 1685 -34 57
c-91 150 -117 234 -112 362 3 102 30 188 89 283 72 118 69 198 -10 252 l-37
25 -1450 2 c-1127 1 -1462 -1 -1502 -11z m1576 -2471 c13 -14 21 -25 18 -25
-2 0 -15 11 -28 25 -13 14 -21 25 -18 25 2 0 15 -11 28 -25z m51 -42 c13 -16
12 -17 -3 -4 -17 13 -22 21 -14 21 2 0 10 -8 17 -17z m-680 -270 c13 -16 12
-17 -3 -4 -10 7 -18 15 -18 17 0 8 8 3 21 -13z m44 -33 c10 -11 16 -20 13 -20
-3 0 -13 9 -23 20 -10 11 -16 20 -13 20 3 0 13 -9 23 -20z"/>
</g>
</svg>
